<mxfile host="app.diagrams.net" agent="Mozilla/5.0 (Windows NT 10.0; Win64; x64) AppleWebKit/537.36 (KHTML, like Gecko) Chrome/133.0.0.0 Safari/537.36" version="26.1.0">
  <diagram name="Page-1" id="rGWjmU5jaFcFK-_PyPep">
    <mxGraphModel dx="788" dy="581" grid="1" gridSize="10" guides="1" tooltips="1" connect="1" arrows="1" fold="1" page="1" pageScale="1" pageWidth="827" pageHeight="1169" math="0" shadow="0">
      <root>
        <mxCell id="0" />
        <mxCell id="1" parent="0" />
        <mxCell id="Hz-sClQAhIOc4GMUWwWl-1" value="WebAPI" style="ellipse;whiteSpace=wrap;html=1;" vertex="1" parent="1">
          <mxGeometry x="30" y="30" width="120" height="80" as="geometry" />
        </mxCell>
        <mxCell id="Hz-sClQAhIOc4GMUWwWl-14" style="edgeStyle=orthogonalEdgeStyle;rounded=0;orthogonalLoop=1;jettySize=auto;html=1;exitX=1;exitY=1;exitDx=0;exitDy=0;entryX=0.5;entryY=0;entryDx=0;entryDy=0;" edge="1" parent="1" source="Hz-sClQAhIOc4GMUWwWl-2" target="Hz-sClQAhIOc4GMUWwWl-13">
          <mxGeometry relative="1" as="geometry" />
        </mxCell>
        <mxCell id="Hz-sClQAhIOc4GMUWwWl-2" value="AccountService" style="ellipse;whiteSpace=wrap;html=1;" vertex="1" parent="1">
          <mxGeometry x="60" y="150" width="120" height="80" as="geometry" />
        </mxCell>
        <mxCell id="Hz-sClQAhIOc4GMUWwWl-3" value="CardService" style="ellipse;whiteSpace=wrap;html=1;" vertex="1" parent="1">
          <mxGeometry x="330" y="420" width="120" height="80" as="geometry" />
        </mxCell>
        <mxCell id="Hz-sClQAhIOc4GMUWwWl-4" value="VisaCardservice" style="ellipse;whiteSpace=wrap;html=1;" vertex="1" parent="1">
          <mxGeometry x="110" y="410" width="120" height="80" as="geometry" />
        </mxCell>
        <mxCell id="Hz-sClQAhIOc4GMUWwWl-5" value="Accountservice2" style="ellipse;whiteSpace=wrap;html=1;" vertex="1" parent="1">
          <mxGeometry x="430" y="120" width="120" height="80" as="geometry" />
        </mxCell>
        <mxCell id="Hz-sClQAhIOc4GMUWwWl-6" style="edgeStyle=orthogonalEdgeStyle;rounded=0;orthogonalLoop=1;jettySize=auto;html=1;exitX=1;exitY=1;exitDx=0;exitDy=0;entryX=0;entryY=0.5;entryDx=0;entryDy=0;" edge="1" parent="1" source="Hz-sClQAhIOc4GMUWwWl-1" target="Hz-sClQAhIOc4GMUWwWl-10">
          <mxGeometry relative="1" as="geometry" />
        </mxCell>
        <mxCell id="Hz-sClQAhIOc4GMUWwWl-11" style="edgeStyle=orthogonalEdgeStyle;rounded=0;orthogonalLoop=1;jettySize=auto;html=1;exitX=0.5;exitY=1;exitDx=0;exitDy=0;" edge="1" parent="1" source="Hz-sClQAhIOc4GMUWwWl-10" target="Hz-sClQAhIOc4GMUWwWl-5">
          <mxGeometry relative="1" as="geometry" />
        </mxCell>
        <mxCell id="Hz-sClQAhIOc4GMUWwWl-12" style="edgeStyle=orthogonalEdgeStyle;rounded=0;orthogonalLoop=1;jettySize=auto;html=1;exitX=0.25;exitY=1;exitDx=0;exitDy=0;entryX=1;entryY=0.5;entryDx=0;entryDy=0;" edge="1" parent="1" source="Hz-sClQAhIOc4GMUWwWl-10" target="Hz-sClQAhIOc4GMUWwWl-2">
          <mxGeometry relative="1" as="geometry" />
        </mxCell>
        <mxCell id="Hz-sClQAhIOc4GMUWwWl-10" value="IAccountService" style="shape=parallelogram;perimeter=parallelogramPerimeter;whiteSpace=wrap;html=1;fixedSize=1;" vertex="1" parent="1">
          <mxGeometry x="210" y="20" width="120" height="60" as="geometry" />
        </mxCell>
        <mxCell id="Hz-sClQAhIOc4GMUWwWl-15" style="edgeStyle=orthogonalEdgeStyle;rounded=0;orthogonalLoop=1;jettySize=auto;html=1;exitX=0.25;exitY=1;exitDx=0;exitDy=0;entryX=0.5;entryY=0;entryDx=0;entryDy=0;" edge="1" parent="1" source="Hz-sClQAhIOc4GMUWwWl-13" target="Hz-sClQAhIOc4GMUWwWl-4">
          <mxGeometry relative="1" as="geometry" />
        </mxCell>
        <mxCell id="Hz-sClQAhIOc4GMUWwWl-16" style="edgeStyle=orthogonalEdgeStyle;rounded=0;orthogonalLoop=1;jettySize=auto;html=1;exitX=0.75;exitY=1;exitDx=0;exitDy=0;entryX=0.5;entryY=0;entryDx=0;entryDy=0;" edge="1" parent="1" source="Hz-sClQAhIOc4GMUWwWl-13" target="Hz-sClQAhIOc4GMUWwWl-3">
          <mxGeometry relative="1" as="geometry" />
        </mxCell>
        <mxCell id="Hz-sClQAhIOc4GMUWwWl-13" value="IcardService" style="shape=parallelogram;perimeter=parallelogramPerimeter;whiteSpace=wrap;html=1;fixedSize=1;" vertex="1" parent="1">
          <mxGeometry x="220" y="240" width="120" height="60" as="geometry" />
        </mxCell>
      </root>
    </mxGraphModel>
  </diagram>
</mxfile>
